<svg xmlns="http://www.w3.org/2000/svg" viewBox="0 0 16.905 15.848">
  <defs>
    <style>
      .cls-1 {
        fill: #2d2d2d;
      }
    </style>
  </defs>
  <g id="calendar" transform="translate(0 -8.7)">
    <g id="Group_330" data-name="Group 330" transform="translate(0 8.7)">
      <path id="Path_340" data-name="Path 340" class="cls-1" d="M14.263,9.757H12.15V9.228a.528.528,0,1,0-1.057,0v.528H5.811V9.228A.5.5,0,0,0,5.283,8.7a.5.5,0,0,0-.528.528v.528H2.641A2.616,2.616,0,0,0,0,12.4v9.509a2.616,2.616,0,0,0,2.641,2.641H14.263A2.616,2.616,0,0,0,16.9,21.907V12.4a2.616,2.616,0,0,0-2.641-2.641ZM1.057,12.4a1.625,1.625,0,0,1,1.585-1.585H4.754v.528a.5.5,0,0,0,.528.528.5.5,0,0,0,.528-.528v-.528h5.283v.528a.528.528,0,1,0,1.057,0v-.528h2.113A1.625,1.625,0,0,1,15.848,12.4v1.585H1.057V12.4Zm14.792,9.509a1.625,1.625,0,0,1-1.585,1.585H2.641a1.625,1.625,0,0,1-1.585-1.585V15.039H15.848Z" transform="translate(0 -8.7)"/>
      <path id="Path_341" data-name="Path 341" class="cls-1" d="M44.56,193.527a.959.959,0,0,0,.74-.317,1.021,1.021,0,0,0,0-1.479,1.021,1.021,0,0,0-1.479,0,.959.959,0,0,0-.317.74,1.141,1.141,0,0,0,.317.74A.959.959,0,0,0,44.56,193.527Z" transform="translate(-40.862 -180.32)"/>
      <path id="Path_342" data-name="Path 342" class="cls-1" d="M44.56,141.323a.959.959,0,0,0,.74-.317,1.021,1.021,0,0,0,0-1.479,1.021,1.021,0,0,0-1.479,0,1.057,1.057,0,0,0,.74,1.8Z" transform="translate(-40.862 -131.286)"/>
      <path id="Path_343" data-name="Path 343" class="cls-1" d="M96.764,193.527a.959.959,0,0,0,.74-.317,1.021,1.021,0,0,0,0-1.479,1.021,1.021,0,0,0-1.479,0,1.021,1.021,0,0,0,0,1.479A.959.959,0,0,0,96.764,193.527Z" transform="translate(-89.896 -180.32)"/>
      <path id="Path_344" data-name="Path 344" class="cls-1" d="M96.764,141.323a.959.959,0,0,0,.74-.317,1.021,1.021,0,0,0,0-1.479,1.021,1.021,0,0,0-1.479,0,1.021,1.021,0,0,0,0,1.479A.959.959,0,0,0,96.764,141.323Z" transform="translate(-89.896 -131.286)"/>
      <path id="Path_345" data-name="Path 345" class="cls-1" d="M148.967,193.527a1.046,1.046,0,0,0,.74-1.8,1.021,1.021,0,0,0-1.479,0,1.021,1.021,0,0,0,0,1.479A.959.959,0,0,0,148.967,193.527Z" transform="translate(-138.929 -180.32)"/>
      <path id="Path_346" data-name="Path 346" class="cls-1" d="M148.967,141.323a1.083,1.083,0,0,0,1.057-1.057,1.141,1.141,0,0,0-.317-.74,1.021,1.021,0,0,0-1.479,0,1.021,1.021,0,0,0,0,1.479A.959.959,0,0,0,148.967,141.323Z" transform="translate(-138.929 -131.286)"/>
      <path id="Path_347" data-name="Path 347" class="cls-1" d="M201.171,193.527a.959.959,0,0,0,.74-.317,1.021,1.021,0,0,0,0-1.479,1.021,1.021,0,0,0-1.479,0,.959.959,0,0,0-.317.74,1.141,1.141,0,0,0,.317.74A.959.959,0,0,0,201.171,193.527Z" transform="translate(-187.964 -180.32)"/>
      <path id="Path_348" data-name="Path 348" class="cls-1" d="M201.171,141.323a1.083,1.083,0,0,0,1.057-1.057,1.141,1.141,0,0,0-.317-.74,1.021,1.021,0,0,0-1.479,0,1.021,1.021,0,0,0,0,1.479A.959.959,0,0,0,201.171,141.323Z" transform="translate(-187.964 -131.286)"/>
    </g>
  </g>
</svg>
