<svg id="Group_454" data-name="Group 454" xmlns="http://www.w3.org/2000/svg" viewBox="0 0 85.605 27.2">
  <path id="Path_15423" data-name="Path 15423" d="M25.673,27.2a9.326,9.326,0,0,1-8.193-4.886A9.3,9.3,0,0,1,0,17.9a9.443,9.443,0,0,1,1.058-4.34A9.051,9.051,0,0,1,0,9.248,9.3,9.3,0,0,1,17.48,4.886,9.3,9.3,0,0,1,34.96,9.248,9.059,9.059,0,0,1,33.9,13.565,9.439,9.439,0,0,1,34.96,17.9,9.3,9.3,0,0,1,25.673,27.2Zm.06-25.114a7.173,7.173,0,0,0-7.144,7.186v8.655A7.144,7.144,0,1,0,32.877,17.9,7.24,7.24,0,0,0,31.668,13.9l-.231-.344.231-.344a7.071,7.071,0,0,0,1.208-3.961A7.159,7.159,0,0,0,25.733,2.086Zm-16.507,0A7.161,7.161,0,0,0,2.082,9.248a7.071,7.071,0,0,0,1.208,3.961l.231.344-.231.344A7.25,7.25,0,0,0,2.082,17.9a7.144,7.144,0,1,0,14.288.023V9.272A7.172,7.172,0,0,0,9.226,2.086Z" transform="translate(0)"/>
  <g id="Group_453" data-name="Group 453" transform="translate(42.374 2.087)">
    <g id="Group_451" data-name="Group 451">
      <path id="Path_15424" data-name="Path 15424" d="M366.606,20.063c-.149-.665-.475-1.33-1.248-1.33-.856,0-1.194.692-1.194,1.452,0,.733.149.963,1.573,1.819,1.112.665,1.872,1.221,1.872,2.618a2.264,2.264,0,0,1-2.28,2.552c-1.6,0-2.184-1.059-2.321-2.5l.909-.121c.121,1,.339,1.764,1.438,1.764.787,0,1.344-.529,1.344-1.614,0-1.194-.774-1.6-1.71-2.144-1.045-.61-1.737-1.045-1.737-2.374a2.163,2.163,0,0,1,2.1-2.307c1.275,0,1.9.909,2.13,2.049Z" transform="translate(-363.01 -17.88)"/>
      <path id="Path_15425" data-name="Path 15425" d="M433.159,27.961h-.909V18.91h1.967a2.215,2.215,0,0,1,2.5,2.4c0,1.682-.95,2.618-2.2,2.618h-1.356v4.031Zm0-4.844,1.276-.014c.842-.014,1.33-.651,1.33-1.791a1.4,1.4,0,0,0-1.561-1.588h-1.045Z" transform="translate(-424.168 -18.79)"/>
      <path id="Path_15426" data-name="Path 15426" d="M498.63,18.91h.909v8.236h3.718v.814H498.63Z" transform="translate(-482.799 -18.79)"/>
      <path id="Path_15427" data-name="Path 15427" d="M566.941,19.734H565.72V18.92h3.365v.814H567.85v7.423h1.235v.814H565.72v-.814h1.221Z" transform="translate(-542.058 -18.799)"/>
      <path id="Path_15428" data-name="Path 15428" d="M624.1,18.91h1.139l2.686,7.612.027-.027-.04-2.022V18.91h.908v9.05h-1.139L625,20.334l-.027.027.041,2.049v5.549H624.1V18.91Z" transform="translate(-593.623 -18.79)"/>
      <path id="Path_15429" data-name="Path 15429" d="M695.59,18.91H700v.814h-3.5v2.985h2.89v.815H696.5v3.623H700v.814h-4.41Z" transform="translate(-656.768 -18.79)"/>
    </g>
    <g id="Group_452" data-name="Group 452" transform="translate(0.299 13.842)">
      <path id="Path_15430" data-name="Path 15430" d="M369.166,138.663c-.149-.665-.475-1.33-1.248-1.33-.856,0-1.194.692-1.194,1.452,0,.733.149.963,1.573,1.819,1.112.665,1.872,1.221,1.872,2.618a2.264,2.264,0,0,1-2.28,2.552c-1.6,0-2.184-1.059-2.321-2.5l.909-.121c.121,1,.339,1.764,1.438,1.764.787,0,1.342-.529,1.342-1.614,0-1.194-.774-1.6-1.71-2.144-1.045-.611-1.737-1.045-1.737-2.374a2.163,2.163,0,0,1,2.1-2.307c1.275,0,1.9.909,2.13,2.05Z" transform="translate(-365.57 -136.478)"/>
      <path id="Path_15431" data-name="Path 15431" d="M431.744,138.334H429.79v-.814h4.777v.814h-1.913v8.236h-.909Z" transform="translate(-422.294 -137.396)"/>
      <path id="Path_15432" data-name="Path 15432" d="M498.839,137.51v6.581c0,.9.176,1.737,1.3,1.737s1.317-.854,1.317-1.737V137.51h.909v6.852a2.135,2.135,0,0,1-2.226,2.321,2.112,2.112,0,0,1-2.212-2.28V137.51Z" transform="translate(-482.48 -137.387)"/>
      <path id="Path_15433" data-name="Path 15433" d="M562.83,138.334v-.814h2.388c1.819,0,2.89.8,2.89,4.533,0,1.995-.109,4.519-2.863,4.519H562.83v-.814h.733v-7.423h-.733Zm1.642,7.422h.746c1.1,0,1.94-.285,1.94-3.7,0-3.447-.922-3.718-1.723-3.718h-.963Z" transform="translate(-539.804 -137.396)"/>
      <path id="Path_15434" data-name="Path 15434" d="M634.1,138.334H632.88v-.814h3.365v.814H635.01v7.423h1.235v.814H632.88v-.814H634.1Z" transform="translate(-601.677 -137.396)"/>
      <path id="Path_15435" data-name="Path 15435" d="M693.16,141.1c0,1.139.041,4.654-2.511,4.654-2.578,0-2.511-3.488-2.511-4.654,0-1.493.095-4.641,2.511-4.641C693.2,136.461,693.16,139.907,693.16,141.1Zm-4.07,0c0,2.442.285,3.8,1.561,3.8,1.573,0,1.561-2.225,1.561-3.8,0-1.71.041-3.786-1.561-3.786S689.09,139.772,689.09,141.1Z" transform="translate(-650.486 -136.46)"/>
    </g>
  </g>
</svg>
