<svg xmlns="http://www.w3.org/2000/svg" viewBox="0 0 161.543 42.089">
  <defs>
    <style>
      .cls-1 {
        fill: #03a08b;
      }

      .cls-2 {
        fill: #026239;
      }

      .cls-3 {
        fill: #016139;
        font-size: 6px;
        font-family: Helvetica-BoldOblique, Helvetica;
        font-weight: 700;
        font-style: oblique;
      }
    </style>
  </defs>
  <g id="logo-varius" transform="translate(0 -0.415)">
    <g id="layer1" transform="translate(0 0.415)">
      <g id="g142">
        <path id="path146" class="cls-1" d="M117.288,247.083a7.9,7.9,0,0,1-6.449-4.982,5.892,5.892,0,0,1-.3-2.291,15.1,15.1,0,0,1,.679-4.282c1.1-4.618,2.086-8.832,2.5-10.64.213-.928.435-1.862.494-2.076l.107-.389,6.8-.034c3.738-.018,6.841.012,6.9.069a4.118,4.118,0,0,1-.218,1.331c-.176.676-.667,2.66-1.092,4.408-1.291,5.318-3.239,13.294-4.118,16.863-.254,1.032-.491,1.951-.527,2.044-.085.222-3.317.208-4.773-.021Zm22-1.574c.006-.151.037-.182.078-.078a.261.261,0,0,1-.01.249C139.318,245.723,139.287,245.646,139.293,245.509Z" transform="translate(-98.408 -221.077)"/>
        <path id="path144" class="cls-2" d="M103.25,257.689c-.2-.446-.879-1.861-1.5-3.146S99.1,249,97.223,245.071s-5.209-10.912-7.414-15.526-4.008-8.424-4.008-8.467S89.246,221,93.456,221s7.656.029,7.656.065-.826,3.554-1.836,7.818c-1.6,6.741-1.843,7.932-1.9,9.124a6.867,6.867,0,0,0,2.173,5.7,8.932,8.932,0,0,0,5.786,2.587c.7.078,1.281.155,1.29.171.032.052-2.891,11.913-2.95,11.973A2.382,2.382,0,0,1,103.25,257.689Zm53.2-.021c-.377-.276-.295-.966.444-3.709.356-1.32.968-3.6,1.361-5.061s1.28-4.762,1.972-7.332c1.459-5.416,1.439-5.335,1.381-5.822a.559.559,0,0,0-.425-.516c-.852-.321-.269-.41,2.913-.445a22.968,22.968,0,0,1,3.444.093c.307.164.4.664.25,1.335-.166.741.034.88.5.345,1.758-2.041,1.944-2.128,4.522-2.118,2.067.008,3.25.278,4.184.954a4.49,4.49,0,0,1,1.824,3.916,16.33,16.33,0,0,1-.821,5.467c-1.2,4.207-2.411,6.143-4.473,7.143-1.53.742-2.548.894-6.616.985l-3.567.08-.413,1.492c-.583,2.1-.553,2.855.112,2.855.147,0,.234.1.234.26,0,.253-.087.26-3.284.26C157.352,257.852,156.65,257.815,156.448,257.668Zm12.5-9.02a3.625,3.625,0,0,0,1.061-.733c1.04-1.185,2.342-5.254,2.343-7.322,0-1.712-.642-2.334-2.412-2.335-1.615,0-2.36.368-2.913,1.443-.133.258-.744,2.361-1.359,4.671s-1.148,4.31-1.187,4.443c-.067.23.026.239,1.857.188A6,6,0,0,0,168.946,248.648Zm-29.509,4.4a4.309,4.309,0,0,1-3.114-2.289,9.364,9.364,0,0,1,.062-4.512,6.947,6.947,0,0,1,3.178-4.479c1.347-.661,2.232-.777,5.967-.779,4.178,0,4.039.044,4.373-1.479.119-.541.107-.669-.08-.876-.2-.224-.47-.243-3.605-.25-3.681-.008-4.179-.081-4.453-.656-.135-.283-.12-.5.094-1.318.141-.539.315-1.133.387-1.322l.13-.343,5.937.039,5.937.039.615.306c1.756.873,2.048,2.325,1.152,5.728-.273,1.035-1.033,3.863-1.691,6.285a36.559,36.559,0,0,0-1.118,4.708.807.807,0,0,0,.43.457c.194.083.369.161.389.172s0,.116-.046.233c-.073.189-.415.213-3.036.213-1.625,0-3.142-.038-3.371-.083-.6-.121-.743-.512-.537-1.514.091-.442.175-.858.187-.925s-.072-.143-.185-.168c-.139-.031-.425.295-.876,1a3.2,3.2,0,0,1-2.412,1.815,19.6,19.6,0,0,1-4.311,0Zm8.707-6.061c.277-1.124.53-2.146.562-2.271.054-.209-.1-.227-1.935-.226s-2.05.027-2.656.309a2.506,2.506,0,0,0-1.43,1.731c-.379,1.259-.1,2.1.77,2.357a15.634,15.634,0,0,0,2.3.131l1.886.012ZM182.992,253a3.516,3.516,0,0,1-1.81-.8c-.843-.709-1.108-1.934-.776-3.58.076-.378.843-3.353,1.7-6.61a46.6,46.6,0,0,0,1.479-6.269.787.787,0,0,0-.451-.5c-.2-.085-.339-.227-.309-.316.042-.124.828-.162,3.345-.162,4.268,0,4.043-.226,3.165,3.193-.291,1.134-.938,3.61-1.436,5.5s-.94,3.742-.98,4.113c-.068.624-.044.7.324,1.071.395.395.4.4,1.838.4,2.389,0,2.943-.387,3.514-2.454,1.44-5.21,2.72-10.224,2.72-10.657,0-.478-.043-.553-.39-.685-.865-.326-.288-.414,2.953-.449,3.657-.039,3.666-.037,3.666.87,0,.271-.876,3.883-1.946,8.028s-1.946,7.71-1.946,7.924c0,.412.286.8.593.8.1,0,.185.12.185.268,0,.264-.04.267-3.289.227-3.921-.048-3.779,0-3.686-1.3.044-.614.018-.88-.087-.88a3.9,3.9,0,0,0-.872.885,3.274,3.274,0,0,1-2.491,1.46,23.177,23.177,0,0,1-5.017-.065Zm-70.62-.181a1,1,0,0,1-.877-.962,12.218,12.218,0,0,1,.378-1.85c3.874-14.654,4.785-18.133,4.881-18.654a1.009,1.009,0,0,0-.585-1.2c-.145-.046-.263-.167-.263-.269,0-.159.991-.186,6.854-.186,6.279,0,6.931.02,7.778.243a5.084,5.084,0,0,1,3.347,2.376c.359.648.382.777.379,2.118a5.568,5.568,0,0,1-1,3.561,3.967,3.967,0,0,1-2.1,1.749l-.742.3.566.332c1.93,1.131,2.6,2.765,2.115,5.162-.673,3.327-1.97,5.474-3.874,6.411-1.742.857-1.97.879-9.627.919C115.821,252.885,112.566,252.862,112.371,252.814Zm11.683-4.491a2.749,2.749,0,0,0,1.962-1.663c1.029-2.111.921-3.818-.283-4.472-.357-.194-.774-.229-2.753-.23h-2.333l-.808,2.984c-.444,1.641-.841,3.116-.881,3.276l-.074.292h2.241a14.189,14.189,0,0,0,2.929-.185Zm2.867-10.457a3.159,3.159,0,0,0,1.405-2.458c.087-.956-.129-1.347-.943-1.707-.494-.218-.822-.246-2.544-.215l-1.977.036-.556,2.206c-.306,1.213-.557,2.285-.559,2.383,0,.144.418.168,2.3.127,2.164-.047,2.338-.069,2.874-.371Zm78.3,14.866c-.77-.335-.862-.984-.389-2.73l.281-1.038,1.492-.065c1.836-.08,2.2-.254,2.756-1.315l.383-.732-1-3.1c-1.414-4.387-1.988-6.171-3.121-9.71-.854-2.665-1.057-3.171-1.422-3.536a1.456,1.456,0,0,0-.644-.426c-.12,0-.194-.073-.164-.162.041-.123.893-.171,3.547-.2,3.705-.037,4.029,0,4.4.564.169.258,1.506,4.509,2.582,8.212a3.035,3.035,0,0,0,.388.973,80.073,80.073,0,0,0,4.7-8.441.627.627,0,0,0-.193-.676.906.906,0,0,0-.478-.273c-.113,0-.181-.073-.151-.162.041-.123.9-.17,3.577-.2,3.384-.033,3.534-.024,3.785.227.457.457.329.9-.8,2.743l-1.925,3.163C217.273,245,213.5,251,212.987,251.537c-1.128,1.17-1.948,1.387-5.2,1.379a9.061,9.061,0,0,1-2.561-.184Zm22.574.051c-2.318-.3-3.218-1.522-3.2-4.339a12.417,12.417,0,0,1,.6-3.763,25.611,25.611,0,0,1,2-5.8,9,9,0,0,1,2.913-3.307c1.288-.77,1.7-.816,7.264-.816H242.4l-.424,1.412c-.233.777-.469,1.484-.523,1.572a2.217,2.217,0,0,1-.69.422c-.513.227-.93.268-3.13.308-1.4.025-2.721.077-2.945.116a3.438,3.438,0,0,0-1.8,1.333,48.76,48.76,0,0,0-2.014,7.4,1.4,1.4,0,0,0,.754,1.314,17.908,17.908,0,0,0,3.672.116c3.136-.039,3.321-.055,3.846-.335.3-.162.551-.352.551-.422s.146-.127.324-.127.324.044.324.1a28.668,28.668,0,0,1-.954,3.369c-.467.9-1.245,1.282-2.968,1.463a82.547,82.547,0,0,1-8.626-.007Zm-13.682-26.031a.8.8,0,0,1-.373-.439l-.158-.382h-1.74c-1.41,0-1.754-.036-1.813-.19a13.086,13.086,0,0,1,.471-2.278,13.4,13.4,0,0,0,.479-2.34c-.06-.228.006-.252.7-.252.644,0,.766.036.766.227,0,.125-.2,1-.454,1.946s-.454,1.78-.454,1.855.321.122.861.1l.861-.038.505-1.876a11.818,11.818,0,0,0,.441-2.044c-.048-.124.117-.168.638-.168a1.736,1.736,0,0,1,.766.1,13.085,13.085,0,0,1-.447,2.02c-.281,1.054-.511,1.941-.511,1.972s.117.056.26.056c.31,0,.305-.059.066.861-.17.654-.374.981-.585.938-.036-.007-.161-.039-.279-.07Zm-95.483-.984c0-.089.205-.947.454-1.905s.453-1.82.453-1.914c0-.221-1.053-.234-1.272-.015-.2.2-.2.014-.015-.522.172-.493.326-.527,2.663-.573l1.7-.034-.109.38c-.138.482-.312.589-.957.591l-.519,0-.5,1.876a10.43,10.43,0,0,0-.426,2.076c.064.167-.053.2-.7.2-.534,0-.774-.05-.773-.162Zm6.357.049c0-.066.265-1.128.59-2.361a15.824,15.824,0,0,0,.523-2.414c-.054-.14.295-.173,1.8-.173h1.865l-.074.292c-.108.426-.257.482-1.276.485l-.92,0-.15.5a4.88,4.88,0,0,0-.15.584,2.966,2.966,0,0,0,.973.082,3.309,3.309,0,0,1,.973.073,1.252,1.252,0,0,1-.134.324c-.109.2-.276.251-.884.251-.922,0-1.142.152-1.383.954l-.189.629L127.7,225l1.148-.045-.157.454-.157.454-1.771.036a6.184,6.184,0,0,1-1.771-.084Zm7.4-.033a9.02,9.02,0,0,1,1.168-1.367,10.574,10.574,0,0,0,1.168-1.341,9.2,9.2,0,0,0-.5-1.169l-.5-1.05.731.038c.691.036.743.063.958.493.125.25.248.513.275.584.074.2.861-.6.861-.875,0-.21.089-.237.671-.2.369.022.693.106.72.187a4.006,4.006,0,0,1-.8,1.118,9.306,9.306,0,0,0-.85,1.052,16.783,16.783,0,0,0,1.22,2.578c.079.052-.238.1-.7.1l-.847,0-.372-.853-.372-.853-.7.687a3.166,3.166,0,0,0-.7.853c0,.115-.219.167-.714.167-.442,0-.714-.056-.714-.146Zm8.76.017a15.12,15.12,0,0,1,.514-2.408,15.756,15.756,0,0,0,.518-2.4c-.044-.071.251-.122.711-.122a1.671,1.671,0,0,1,.785.1,6.766,6.766,0,0,1-.195.734c-.3.992-.306.985.7.985h.9l.157-.653a2.68,2.68,0,0,0,.09-.908c-.061-.233,0-.255.716-.255h.783l-.083.519c-.046.285-.294,1.291-.552,2.235a17.609,17.609,0,0,0-.469,2.011c0,.27-.059.295-.7.295-.808,0-.821-.033-.5-1.254.294-1.13.314-1.1-.67-1.056l-.865.038-.242.843a3.906,3.906,0,0,0-.192,1.135c.048.272.005.292-.637.292a1.491,1.491,0,0,1-.767-.129Zm8.628.019c0-.06.265-1.1.588-2.3a15.8,15.8,0,0,0,.531-2.421c-.049-.2.042-.227.649-.227.445,0,.728.06.767.162a5.422,5.422,0,0,1-.259,1.324,5.127,5.127,0,0,0-.252,1.23,7.44,7.44,0,0,0,1.245-1.128c.993-1.009,1.151-1.227,1.014-1.392s-.062-.2.632-.2c.983,0,.972-.095.275,2.53a22.347,22.347,0,0,0-.518,2.238c0,.267-.062.292-.715.292-.841,0-.841,0-.449-1.415a4.879,4.879,0,0,0,.221-1.085,4.415,4.415,0,0,0-1.182.948c-.818.774-1.121,1.145-1.077,1.315.055.209-.027.237-.7.237-.422,0-.766-.049-.766-.11Zm11.55.012c0-.054.088-.418.193-.811a7.2,7.2,0,0,0,.193-.857c0-.088-.449-.172-1.176-.219a4.429,4.429,0,0,1-1.362-.23c-.239-.2-.234-.785.014-1.741a2.838,2.838,0,0,0,.134-.936c-.05-.129.123-.171.709-.171.438,0,.774.057.774.132a7.729,7.729,0,0,1-.213.9c-.294,1.058-.223,1.177.7,1.177h.758l.235-.905a3.389,3.389,0,0,0,.159-1.1c-.062-.162.05-.2.626-.2a1.578,1.578,0,0,1,.778.122,15.757,15.757,0,0,1-.518,2.4,15.118,15.118,0,0,0-.514,2.408c.049.079-.221.129-.707.129a1.669,1.669,0,0,1-.785-.1Zm5.578-.012c0-.06.264-1.125.586-2.365a16.713,16.713,0,0,0,.523-2.421c-.049-.129.351-.165,1.823-.165h1.886l-.091.292c-.133.428-.282.482-1.315.485l-.935,0-.131.474a1.244,1.244,0,0,0-.063.584,2.511,2.511,0,0,0,.964.109c.875,0,.894.007.789.292-.093.252-.224.3-.963.357a2.728,2.728,0,0,0-.989.2,2.761,2.761,0,0,0-.322.759l-.188.625,1.141-.045,1.141-.045-.1.353a2.657,2.657,0,0,1-.184.487,13.218,13.218,0,0,1-3.571.024Zm8.274-.094c-.427-.232-.546-.633-.452-1.528.162-1.543.992-2.947,1.888-3.2a8.935,8.935,0,0,1,2.487-.077,2.645,2.645,0,0,1-.127.389c-.109.287-.2.333-.694.333-1.272,0-1.706.433-2.093,2.093-.282,1.21-.189,1.309,1.178,1.258l1.1-.042-.082.324c-.151.6-.279.65-1.6.644a4.049,4.049,0,0,1-1.6-.2Zm6.908-.048c0-.138.238-1.144.529-2.235a12.879,12.879,0,0,0,.472-2.28c-.054-.28-.017-.3.7-.3.849,0,.874.039.621.953a1.154,1.154,0,0,0-.068.57c.116.116,1.533-1.016,1.6-1.28.052-.2.188-.243.754-.243.933,0,1.017.2.321.772-.31.253-.739.612-.955.8l-.392.338.326,1.155c.264.935.377,1.162.594,1.194s.252.1.174.389c-.087.325-.143.35-.793.35h-.7l-.3-1.038c-.424-1.485-.373-1.4-.743-1.161a3.366,3.366,0,0,0-.753,1.972c0,.266-.063.292-.7.292C182.178,225.931,182.083,225.9,182.083,225.68Zm8.046.024c0-.125.26-1.18.576-2.345a13.494,13.494,0,0,0,.5-2.3c-.056-.147.075-.186.635-.186a2.57,2.57,0,0,1,.777.071,5.613,5.613,0,0,1-.244,1.313,7.443,7.443,0,0,0-.264,1.293A8.8,8.8,0,0,0,193.3,222.5c.885-.853,1.124-1.158,1.07-1.364-.063-.243-.01-.265.636-.265.469,0,.728.058.772.174a15.811,15.811,0,0,1-.523,2.413,15.809,15.809,0,0,0-.517,2.357c.04.065-.28.117-.714.117a4.759,4.759,0,0,1-.784-.032c0-.018.144-.585.318-1.261a6.137,6.137,0,0,0,.253-1.291,11.017,11.017,0,0,0-2.26,2.354c0,.192-.117.23-.714.23s-.714-.038-.713-.227Zm8.693.072c0-.085.267-1.141.594-2.347a14.471,14.471,0,0,0,.523-2.376c-.055-.145.079-.184.631-.184a1.721,1.721,0,0,1,.767.105,5.8,5.8,0,0,1-.245,1.326,6.066,6.066,0,0,0-.248,1.283,6.992,6.992,0,0,0,1.168-1.034c.863-.855,1.094-1.16,1.052-1.388-.051-.276-.011-.292.707-.292.944,0,.935-.094.225,2.509a21.731,21.731,0,0,0-.535,2.257c0,.269-.059.294-.7.294-.82,0-.811.033-.431-1.453a3.893,3.893,0,0,0,.191-1.118,5.8,5.8,0,0,0-1.18,1.021c-.753.747-1.086,1.168-1.046,1.323.05.2-.043.227-.708.227-.507,0-.766-.052-.766-.155Zm19.853.013c0-.082.266-1.165.59-2.406a14.9,14.9,0,0,0,.511-2.385c-.05-.082.58-.128,1.745-.128,1.67,0,1.824.02,1.824.234,0,.423-.281.545-1.253.545h-.941l-.135.487a4.7,4.7,0,0,0-.136.584,2.506,2.506,0,0,0,.968.1c.95,0,.967.006.862.292-.094.255-.226.3-1.031.365a4.3,4.3,0,0,0-1,.149,3.518,3.518,0,0,0-.25.738l-.175.662h1a2.588,2.588,0,0,0,1.155-.155c.115-.115.112-.006-.012.422l-.167.576-1.779.036c-1.276.026-1.779-.006-1.779-.113Zm7.786-.058c0-.11.261-1.2.579-2.42a16.42,16.42,0,0,0,.511-2.33c-.074-.12,1.285-.156,1.4-.037a1.864,1.864,0,0,1-.107.746c-.271,1.018-.285,1,.664,1,.8,0,.854-.018.987-.357a3.349,3.349,0,0,0,.159-.908l.019-.551h.746c.578,0,.746.043.746.195,0,.107-.263,1.193-.584,2.413a15.52,15.52,0,0,0-.511,2.335c.04.065-.28.117-.714.117a4.774,4.774,0,0,1-.784-.032c0-.018.117-.47.257-1.006.362-1.382.395-1.315-.615-1.271l-.874.038-.232.843a4,4,0,0,0-.182,1.135c.048.275.007.292-.71.292-.6,0-.761-.043-.761-.2Zm9.343.094c0-.115.81-3.274.963-3.754.088-.275.057-.292-.539-.292a1.575,1.575,0,0,0-.8.162c-.175.167-.177.182.071-.709.08-.288.5-.351,2.6-.392l1.714-.034-.076.324c-.112.475-.238.564-.911.643l-.607.071-.5,1.817a11.541,11.541,0,0,0-.442,2.044c.048.2-.046.227-.711.227-.422,0-.766-.048-.766-.106Zm6.488-.031c0-.075.238-1.024.528-2.109a23.156,23.156,0,0,0,.551-2.4l.023-.433,1.706.044c1.457.037,1.746.08,1.979.291.542.49.191,2.285-.527,2.694a4.877,4.877,0,0,1-1.4.238l-1.1.065-.171.649a2.74,2.74,0,0,0-.117.876c.046.2-.049.227-.713.227-.451,0-.766-.056-.766-.137Zm3.411-2.732a1.1,1.1,0,0,0,.2-.819c-.038-.523-.046-.53-.591-.569-.5-.036-.565-.005-.687.315a5.317,5.317,0,0,0-.215.936l-.08.58.571-.077a1.236,1.236,0,0,0,.805-.366Zm-44.6-2.829a.443.443,0,0,1,.008-.329c.068-.177.269-.205,1.266-.174,1.117.035,1.187.054,1.226.329s.013.292-1.193.292a4.122,4.122,0,0,1-1.307-.118Z" transform="translate(-85.801 -219.719)"/>
      </g>
    </g>
    <text id="ISO_9001:2009" data-name="ISO 9001:2009" class="cls-3" transform="translate(105.444 41.504)"><tspan x="0" y="0">ISO 9001:2009</tspan></text>
  </g>
</svg>
